/* XPM */
static char * main_xpm[] = {
"32 32 333 2",
"  	c None",
". 	c #CA8121",
"+ 	c #CA801F",
"@ 	c #EAB360",
"# 	c #EAB057",
"$ 	c #B0630B",
"% 	c #FFEEC4",
"& 	c #FFE9B2",
"* 	c #B06106",
"= 	c #DD9F4A",
"- 	c #FFF8E8",
"; 	c #FFF4DF",
"> 	c #DD962E",
", 	c #FDE4B5",
"' 	c #FFF5E3",
") 	c #FFF2D8",
"! 	c #FDD383",
"~ 	c #CE8D3B",
"{ 	c #FFF6DF",
"] 	c #FFF3DD",
"^ 	c #FFEFD1",
"/ 	c #FFE7B6",
"( 	c #CE8118",
"_ 	c #F1CC93",
": 	c #FEF6E4",
"< 	c #FFF1D6",
"[ 	c #FFEDC9",
"} 	c #FEE9BE",
"| 	c #F1B44C",
"1 	c #BA7321",
"2 	c #FFF6DB",
"3 	c #FFF3DB",
"4 	c #FFEFCF",
"5 	c #FFEAC1",
"6 	c #FFE5B1",
"7 	c #FFD985",
"8 	c #BA6A08",
"9 	c #E3B06B",
"0 	c #FEF5E1",
"a 	c #FFF0D4",
"b 	c #FFECC7",
"c 	c #FFE7B7",
"d 	c #FFE1A7",
"e 	c #FEDC98",
"f 	c #E3971F",
"g 	c #A45300",
"h 	c #FFEEC8",
"i 	c #FFF1D7",
"j 	c #FFEDCA",
"k 	c #FFE9BC",
"l 	c #FFE3AD",
"m 	c #FFDD9B",
"n 	c #FFD788",
"o 	c #FFC54D",
"p 	c #A45400",
"q 	c #B96304",
"r 	c #C17217",
"s 	c #C77F2B",
"t 	c #CE8B3C",
"u 	c #D2954A",
"v 	c #D69B53",
"w 	c #D9A25B",
"x 	c #DDA661",
"y 	c #E2AE6A",
"z 	c #EEC484",
"A 	c #FFF1D5",
"B 	c #FFEDCD",
"C 	c #FFEAC0",
"D 	c #FFDFA0",
"E 	c #FFD98E",
"F 	c #FFD279",
"G 	c #FFCA5E",
"H 	c #EE9D10",
"I 	c #E28B03",
"J 	c #DD8302",
"K 	c #D97E04",
"L 	c #D67906",
"M 	c #D27508",
"N 	c #CE6F09",
"O 	c #C76A07",
"P 	c #C16604",
"Q 	c #B96101",
"R 	c #9E5808",
"S 	c #F7CB79",
"T 	c #FFF6D6",
"U 	c #FFFAE6",
"V 	c #FFFBEB",
"W 	c #FFFBEE",
"X 	c #FFFBEF",
"Y 	c #FFF9ED",
"Z 	c #FEF8E8",
"` 	c #FFF5E2",
" .	c #FFF2D9",
"..	c #FFE6B3",
"+.	c #FFE0A3",
"@.	c #FFDB92",
"#.	c #FFD47E",
"$.	c #FFCD69",
"%.	c #FFC552",
"&.	c #FFBE3B",
"*.	c #FFB52A",
"=.	c #FEAE23",
"-.	c #FFA51B",
";.	c #FF9C16",
">.	c #FF9719",
",.	c #FF921F",
"'.	c #FF9121",
").	c #FF9221",
"!.	c #FF9120",
"~.	c #F7921E",
"{.	c #9E5402",
"].	c #562700",
"^.	c #E2A954",
"/.	c #FFF8E1",
"(.	c #FEFBF3",
"_.	c #FFF9EE",
":.	c #FFF8EA",
"<.	c #FFF7E6",
"[.	c #FFF5E1",
"}.	c #FFE5B3",
"|.	c #FFE1A4",
"1.	c #FFDB94",
"2.	c #FFD581",
"3.	c #FFCE6D",
"4.	c #FFC757",
"5.	c #FFBF40",
"6.	c #FFB727",
"7.	c #FFAE1E",
"8.	c #FFA616",
"9.	c #FF9E12",
"0.	c #FF9815",
"a.	c #FF941B",
"b.	c #FF901F",
"c.	c #FE9020",
"d.	c #FF9423",
"e.	c #E2891A",
"f.	c #562B00",
"g.	c #C6842C",
"h.	c #FFECBE",
"i.	c #FEF7E7",
"j.	c #FFF5E0",
"k.	c #FFEECE",
"l.	c #FFECC6",
"m.	c #FFE8BC",
"n.	c #FFDB93",
"o.	c #FFD582",
"p.	c #FFCF70",
"q.	c #FFC85A",
"r.	c #FFBB34",
"s.	c #FFB114",
"t.	c #FFA905",
"u.	c #FFA306",
"v.	c #FF9F0B",
"w.	c #FF9B11",
"x.	c #FF9717",
"y.	c #FF921B",
"z.	c #FE8E1D",
"A.	c #FF9C2C",
"B.	c #C67816",
"C.	c #A46212",
"D.	c #FADA93",
"E.	c #FFF0D3",
"F.	c #FFEFCE",
"G.	c #FFE3AC",
"H.	c #FFDF9F",
"I.	c #FFDA91",
"J.	c #FFCD6A",
"K.	c #FFBE3C",
"L.	c #FFB31B",
"M.	c #FFAE0D",
"N.	c #FFA901",
"O.	c #FFA505",
"P.	c #FFA10A",
"Q.	c #FF9D0F",
"R.	c #FF9914",
"S.	c #FF9519",
"T.	c #FF8F1C",
"U.	c #FAA63A",
"V.	c #A45F0D",
"W.	c #773E00",
"X.	c #EFBF68",
"Y.	c #FFEABA",
"Z.	c #FFE7B8",
"`.	c #FFE4AF",
" +	c #FFE1A5",
".+	c #FFDD99",
"++	c #FFD98C",
"@+	c #FFC34C",
"#+	c #FFB728",
"$+	c #FFB31E",
"%+	c #FFAF10",
"&+	c #FFAA02",
"*+	c #FFA603",
"=+	c #FFA308",
"-+	c #FF9F0D",
";+	c #FF9B12",
">+	c #FF9616",
",+	c #FF9B28",
"'+	c #EFA541",
")+	c #421B00",
"!+	c #D99D40",
"~+	c #FFE6A1",
"{+	c #FEDE9D",
"]+	c #FFD685",
"^+	c #FFD070",
"/+	c #FFBC36",
"(+	c #FFB31C",
"_+	c #FFAF0F",
":+	c #FFAA03",
"<+	c #FFA00B",
"[+	c #FF9C10",
"}+	c #FE9511",
"|+	c #FFB147",
"1+	c #D99337",
"2+	c #421D00",
"3+	c #BB781E",
"4+	c #FCD983",
"5+	c #FFD37C",
"6+	c #FFCC65",
"7+	c #FFB729",
"8+	c #FFB521",
"9+	c #FFB117",
"0+	c #FFAE0B",
"a+	c #FFA902",
"b+	c #FFA703",
"c+	c #FFA00C",
"d+	c #FF9D1C",
"e+	c #FCBE64",
"f+	c #BB731F",
"g+	c #F1BD57",
"h+	c #FFC95F",
"i+	c #FFB41E",
"j+	c #FFB217",
"k+	c #FFAF0E",
"l+	c #FFAB05",
"m+	c #FFA801",
"n+	c #FFA604",
"o+	c #FFA307",
"p+	c #FF9F0C",
"q+	c #FF9D10",
"r+	c #FFA533",
"s+	c #F1B562",
"t+	c #9B4E00",
"u+	c #FFD360",
"v+	c #FFB218",
"w+	c #FFAC05",
"x+	c #FFA506",
"y+	c #FFA209",
"z+	c #FF9C0F",
"A+	c #FF9618",
"B+	c #FF8F17",
"C+	c #FFCB7A",
"D+	c #C48019",
"E+	c #FFBA23",
"F+	c #FF9E0E",
"G+	c #FF9814",
"H+	c #FF9517",
"I+	c #FF921C",
"J+	c #FF8F1E",
"K+	c #FFB352",
"L+	c #C47B22",
"M+	c #DE9821",
"N+	c #FFA403",
"O+	c #FF9D12",
"P+	c #FF9B15",
"Q+	c #FF9716",
"R+	c #FF911D",
"S+	c #FF901E",
"T+	c #FF992C",
"U+	c #DE9839",
"V+	c #F3A720",
"W+	c #FEA01D",
"X+	c #FFCC70",
"Y+	c #FFCB73",
"Z+	c #FE9A25",
"`+	c #FF901D",
" @	c #FF8F1F",
".@	c #FF8D1B",
"+@	c #F3AD48",
"@@	c #A35702",
"#@	c #FFAB1F",
"$@	c #FF9C11",
"%@	c #FF9A13",
"&@	c #FF9712",
"*@	c #FFA930",
"=@	c #FCC464",
"-@	c #B56F1A",
";@	c #B56F1B",
">@	c #FCC36C",
",@	c #FFA33B",
"'@	c #FF8E1C",
")@	c #FFAD3E",
"!@	c #A35501",
"~@	c #C97E15",
"{@	c #FF9816",
"]@	c #FF9617",
"^@	c #FE9417",
"/@	c #FFB643",
"(@	c #E49D39",
"_@	c #713900",
":@	c #703800",
"<@	c #E49D3F",
"[@	c #FFB44C",
"}@	c #FF9725",
"|@	c #C97F1C",
"1@	c #E28817",
"2@	c #FE921B",
"3@	c #FF9520",
"4@	c #FAB03F",
"5@	c #B16811",
"6@	c #B16812",
"7@	c #FAB144",
"8@	c #FF9322",
"9@	c #E28F1F",
"0@	c #F7931F",
"a@	c #FE8F1E",
"b@	c #FF9D28",
"c@	c #DE9123",
"d@	c #653200",
"e@	c #DE9125",
"f@	c #FF9D29",
"g@	c #F79822",
"h@	c #AB6005",
"i@	c #FF9421",
"j@	c #F89921",
"k@	c #A86109",
"l@	c #A8610A",
"m@	c #FF9622",
"n@	c #D07910",
"o@	c #D98013",
"p@	c #5B2C00",
"q@	c #D07A11",
"r@	c #814200",
"                                                                ",
"                              . +                               ",
"                              @ #                               ",
"                            $ % & *                             ",
"                            = - ; >                             ",
"                            , ' ) !                             ",
"                          ~ { ] ^ / (                           ",
"                          _ : < [ } |                           ",
"                        1 2 3 4 5 6 7 8                         ",
"                        9 0 a b c d e f                         ",
"                      g h i j k l m n o p                       ",
"    q r s t u v w x y z A B C 6 D E F G H I J K L M N O P Q     ",
"R S T U V W X X Y Z `  .B 5 ..+.@.#.$.%.&.*.=.-.;.>.,.'.).!.~.{.",
"  ].^./.(._.:.<.[.3 a j C }.|.1.2.3.4.5.6.7.8.9.0.a.b.c.d.e.f.  ",
"      g.h.i.j.3 < k.l.m.6 +.n.o.p.q.r.s.t.u.v.w.x.y.z.A.B.      ",
"        C.D.E.F.b C c G.H.I.o.J.K.L.M.N.O.P.Q.R.S.T.U.V.        ",
"          W.X.Y.Z.`. +.+++#.@+#+$+%+&+*+=+-+;+>+,+'+W.          ",
"            )+!+~+{+@.]+^+/+6.(+_+:+*+=+<+[+}+|+1+2+            ",
"                3+4+5+6+7+8+9+0+a+b+=+c+[+d+e+f+                ",
"                  g+h+i+j+k+l+m+n+o+p+q+R.r+s+                  ",
"                t+u+v+0+w+a+b+x+y+p+z+R.A+B+C+t+                ",
"                D+E+N.m+*+O.=+<+F+w.G+H+I+J+K+L+                ",
"                M+N+x+=+y+<+F+O+P+Q+S.R+S+b.T+U+                ",
"                V+<+c+-+Q.[+W+X+Y+Z+`+ @b.b..@+@                ",
"              @@#@$@w.%@&@*@=@-@;@>@,@'@b.b.J+)@!@              ",
"              ~@{@Q+]@^@/@(@_@    :@<@[@z.b.b.}@|@              ",
"              1@2@I+3@4@5@            6@7@8@J+z.9@              ",
"              0@a@b@c@d@                d@e@f@a@g@              ",
"            h@i@j@k@                        l@j@m@h@            ",
"            n@o@p@                            p@o@q@            ",
"            r@                                    r@            ",
"                                                                "};
